<svg width="140" height="28" viewBox="0 0 140 28" fill="none" xmlns="http://www.w3.org/2000/svg">
<path fill-rule="evenodd" clip-rule="evenodd" d="M14 0C6.26801 0 0 6.26801 0 14C0 21.732 6.26801 28 14 28C21.732 28 28 21.732 28 14C28 6.26801 21.732 0 14 0ZM16.0281 17.4739L12.9486 14.1528L16.0281 10.8317L14.5616 9.47183L10.8516 13.4729L10.2211 14.1529L10.8516 14.8328L14.5616 18.8338L16.0281 17.4739Z" fill="#4E4E4E"/>
<circle cx="50" cy="14" r="4" fill="#4E4E4E" fill-opacity="0.5"/>
<circle cx="70" cy="14" r="4" fill="#4E4E4E"/>
<circle cx="90" cy="14" r="4" fill="#4E4E4E" fill-opacity="0.5"/>
<path fill-rule="evenodd" clip-rule="evenodd" d="M126 28C133.732 28 140 21.732 140 14C140 6.26801 133.732 0 126 0C118.268 0 112 6.26801 112 14C112 21.732 118.268 28 126 28ZM123.972 10.5262L127.051 13.8473L123.972 17.1684L125.438 18.5283L129.148 14.5272L129.779 13.8472L129.148 13.1673L125.438 9.16633L123.972 10.5262Z" fill="#4E4E4E"/>
</svg>
