<svg width="140" height="36" viewBox="0 0 140 36" fill="none" xmlns="http://www.w3.org/2000/svg">
<path fill-rule="evenodd" clip-rule="evenodd" d="M14 4C6.26801 4 0 10.268 0 18C0 25.732 6.26801 32 14 32C21.732 32 28 25.732 28 18C28 10.268 21.732 4 14 4ZM16.0281 21.4739L12.9486 18.1528L16.0281 14.8317L14.5616 13.4718L10.8516 17.4729L10.2211 18.1529L10.8516 18.8328L14.5616 22.8338L16.0281 21.4739Z" fill="white"/>
<circle cx="50" cy="18" r="4" fill="white" fill-opacity="0.5"/>
<circle cx="70" cy="18" r="4" fill="white"/>
<circle cx="90" cy="18" r="4" fill="white" fill-opacity="0.5"/>
<path fill-rule="evenodd" clip-rule="evenodd" d="M126 32C133.732 32 140 25.732 140 18C140 10.268 133.732 4 126 4C118.268 4 112 10.268 112 18C112 25.732 118.268 32 126 32ZM123.972 14.5262L127.051 17.8473L123.972 21.1684L125.438 22.5283L129.148 18.5272L129.779 17.8472L129.148 17.1673L125.438 13.1663L123.972 14.5262Z" fill="white"/>
</svg>
